<svg width="22" height="22" viewBox="0 0 22 22" fill="none" xmlns="http://www.w3.org/2000/svg">
<path d="M9.10907 12.8871C7.0097 10.7877 6.53567 8.6883 6.42873 7.84719C6.39885 7.61462 6.47888 7.38138 6.64527 7.21616L8.34418 5.518C8.5941 5.26824 8.63844 4.879 8.45112 4.57943L5.74613 0.379157C5.53889 0.0474313 5.11337 -0.0722916 4.76356 0.102704L0.421087 2.14785C0.138209 2.28714 -0.0281756 2.58769 0.00394202 2.90137C0.231476 5.06293 1.17384 10.3766 6.39574 15.5989C11.6176 20.8211 16.9305 21.7631 19.0932 21.9907C19.4069 22.0228 19.7075 21.8564 19.8468 21.5735L21.8919 17.231C22.0662 16.882 21.9473 16.4576 21.617 16.25L17.4167 13.5458C17.1173 13.3582 16.7281 13.4023 16.4781 13.6519L14.78 15.3509C14.6147 15.5172 14.3815 15.5973 14.1489 15.5674C13.3078 15.4605 11.2085 14.9864 9.10907 12.8871Z" fill="#FFBB21"/>
<path d="M17.4455 11.7557C17.0266 11.7557 16.687 11.4161 16.687 10.9972C16.6835 7.85711 14.1388 5.31244 10.9987 5.30888C10.5798 5.30888 10.2402 4.96931 10.2402 4.55044C10.2402 4.13156 10.5798 3.79199 10.9987 3.79199C14.9762 3.79638 18.1995 7.0197 18.2039 10.9972C18.2039 11.4161 17.8643 11.7557 17.4455 11.7557Z" fill="#FFBB21"/>
<path d="M21.2377 11.7559C20.8188 11.7559 20.4792 11.4163 20.4792 10.9975C20.4734 5.76391 16.2322 1.52274 10.9987 1.51689C10.5798 1.51689 10.2402 1.17732 10.2402 0.758445C10.2402 0.339567 10.5798 0 10.9987 0C17.0696 0.00668792 21.9894 4.9265 21.9961 10.9975C21.9961 11.1986 21.9162 11.3915 21.774 11.5338C21.6318 11.676 21.4388 11.7559 21.2377 11.7559Z" fill="#FFBB21"/>
</svg>
