<svg xmlns="http://www.w3.org/2000/svg"><defs><symbol viewBox="0 0 22 22" fill="none" id="tel"><path d="M9.11 12.887c-2.1-2.1-2.574-4.199-2.681-5.04a.754.754 0 01.216-.63l1.7-1.699a.758.758 0 00.106-.939L5.746.38a.758.758 0 00-.982-.276L.42 2.148a.754.754 0 00-.417.753C.23 5.063 1.174 10.377 6.396 15.6s10.534 6.164 12.697 6.392a.754.754 0 00.754-.418l2.045-4.342a.758.758 0 00-.275-.981l-4.2-2.704a.758.758 0 00-.939.106L14.78 15.35a.754.754 0 01-.631.216c-.841-.107-2.94-.58-5.04-2.68z" fill="#FFBB21"/><path d="M17.445 11.756a.759.759 0 01-.758-.759 5.695 5.695 0 00-5.688-5.688.758.758 0 110-1.517 7.213 7.213 0 017.205 7.205c0 .42-.34.759-.759.759z" fill="#FFBB21"/><path d="M21.238 11.756a.758.758 0 01-.759-.758A9.491 9.491 0 0011 1.517.758.758 0 1111 0c6.07.007 10.99 4.926 10.997 10.998a.759.759 0 01-.758.758z" fill="#FFBB21"/></symbol><symbol viewBox="0 0 33 33" id="tg"><path d="M16.5 33C25.615 33 33 25.615 33 16.5S25.615 0 16.5 0 0 7.385 0 16.5 7.385 33 16.5 33zM7.55 16.142l15.91-6.132c.738-.267 1.383.18 1.144 1.296l.001-.001-2.709 12.761c-.2.905-.738 1.125-1.49.699l-4.125-3.04-1.99 1.916c-.22.22-.405.406-.831.406l.292-4.198 7.645-6.906c.333-.293-.074-.458-.512-.167l-9.448 5.948-4.073-1.27c-.884-.28-.903-.884.187-1.31z"/></symbol><symbol viewBox="0 0 33 33" id="vk"><path d="M16.5 0C7.388 0 0 7.387 0 16.5S7.388 33 16.5 33 33 25.613 33 16.5 25.612 0 16.5 0zm8.37 18.285c.769.75 1.582 1.458 2.273 2.286.306.367.594.746.813 1.172.314.609.03 1.275-.514 1.311h-3.38c-.873.072-1.568-.28-2.153-.877-.468-.476-.902-.984-1.352-1.476a3.16 3.16 0 00-.609-.541c-.46-.3-.861-.208-1.125.273-.27.49-.33 1.033-.356 1.578-.037.797-.277 1.006-1.077 1.043-1.709.08-3.33-.18-4.838-1.04-1.329-.76-2.358-1.833-3.255-3.047C7.551 16.599 6.214 14 5.013 11.328c-.27-.602-.073-.924.591-.936a93.878 93.878 0 013.31-.001c.449.007.746.264.918.688.597 1.466 1.328 2.862 2.243 4.156.245.345.494.689.849.932.391.269.69.18.874-.257.118-.278.17-.575.195-.873.088-1.02.098-2.04-.054-3.055-.094-.636-.452-1.046-1.085-1.166-.323-.062-.276-.181-.119-.365.273-.32.528-.516 1.038-.516h3.82c.601.117.736.387.818.994l.003 4.244c-.007.235.118.93.54 1.084.337.111.56-.16.762-.374.915-.971 1.568-2.118 2.152-3.306.258-.524.48-1.065.697-1.608.16-.402.41-.6.863-.592l3.678.004c.109 0 .219.001.326.02.62.106.79.372.598.977-.302.95-.888 1.741-1.462 2.535-.614.85-1.27 1.669-1.878 2.522-.559.78-.514 1.172.18 1.85z"/></symbol><symbol viewBox="0 0 33 33" id="yo"><path d="M14.444 19.591l5.368-3.091-5.368-3.091v6.182z"/><path d="M16.5 0C7.389 0 0 7.389 0 16.5S7.389 33 16.5 33 33 25.611 33 16.5 25.611 0 16.5 0zm10.31 16.517s0 3.346-.424 4.96a2.584 2.584 0 01-1.818 1.817c-1.614.425-8.068.425-8.068.425s-6.438 0-8.068-.442a2.584 2.584 0 01-1.818-1.817c-.424-1.597-.424-4.96-.424-4.96s0-3.346.424-4.96a2.636 2.636 0 011.818-1.834c1.614-.425 8.068-.425 8.068-.425s6.454 0 8.068.442c.883.238 1.58.934 1.817 1.817.442 1.614.425 4.977.425 4.977z"/></symbol></defs></svg>